# This file uses centimeters as units for non-parametric coordinates.

mtllib Flipper.mtl
g default
v -0.269121 0.172166 -0.441685
v -0.269121 -0.172166 -0.441685
v 0.269121 0.172166 -0.441685
v 0.269121 -0.172166 -0.441685
v -0.225739 -0.172166 3.064149
v -0.107951 -0.172166 3.171626
v -0.225739 0.172166 3.064149
v -0.107951 0.172166 3.171626
v 0.225739 -0.172166 3.064149
v 0.107951 -0.172166 3.171626
v 0.225739 0.172166 3.064149
v 0.107951 0.172166 3.171626
v -0.392715 0.172166 -0.272507
v -0.392715 -0.172166 -0.272507
v 0.392715 0.172166 -0.272507
v 0.392715 -0.172166 -0.272507
v -0.479252 0.172166 0.219832
v -0.444937 0.172166 -0.083617
v -0.444937 -0.172166 -0.083617
v -0.479252 -0.172166 0.219832
v 0.444937 0.172166 -0.083617
v 0.479252 0.172166 0.219832
v 0.479252 -0.172166 0.219832
v 0.444937 -0.172166 -0.083617
v -0.134547 0.172166 -0.517635
v 0.134547 0.172166 -0.517635
v -0.134547 -0.172166 -0.517635
v 0.134547 -0.172166 -0.517635
vt 0.467847 0.000000
vt 0.467847 0.000000
vt 0.532153 0.000000
vt 0.532153 0.000000
vt 0.383032 0.933557
vt 0.383032 0.933557
vt 0.419844 0.979414
vt 0.769844 0.979414
vt 0.567235 0.029132
vt 0.917235 0.029132
vt 0.642743 0.800105
vt 0.642743 0.800105
vt 0.357257 0.800105
vt 0.357257 0.800105
vt 0.432765 0.029132
vt 0.432765 0.029132
vt 0.540074 1.000000
vt 0.540074 1.000000
vt 0.580156 0.979414
vt 0.930157 0.979414
vt 0.459926 1.000000
vt 0.459926 1.000000
vt 0.266968 0.933557
vt 0.616968 0.933557
vt 0.632523 0.882357
vt 0.367477 0.882357
vt 0.367477 0.882357
vt 0.632523 0.882357
vt 0.809926 1.000000
vt 0.890074 1.000000
vt 0.580156 0.979414
vt 0.982523 0.882357
vt 0.992743 0.800105
vt 0.567235 0.029132
vt 0.717477 0.882357
vt 0.707257 0.800105
vt 0.782765 0.029132
vt 0.966968 0.933557
vt 0.733032 0.933557
vt 0.419844 0.979414
vt 0.882153 0.000000
vt 0.817847 0.000000
vt 0.190074 1.000000
vt 0.109926 1.000000
vt 0.230156 0.979414
vt 0.292743 0.800105
vt 0.282523 0.882357
vt 0.616968 0.933557
vt 0.017477 0.882357
vt 0.007257 0.800105
vt 0.033032 0.933557
vt 0.069843 0.979414
vt 0.182153 0.000000
vt 0.217235 0.029132
vt 0.117847 0.000000
vt 0.082765 0.029132
vn 0.000000 0.000000 1.000000
vn 0.000000 0.000000 1.000000
vn 0.000000 0.000000 1.000000
vn 0.000000 0.000000 1.000000
vn -0.897630 0.000000 -0.440749
vn -0.897630 0.000000 -0.440749
vn -0.688555 0.000000 -0.725185
vn -0.688555 0.000000 -0.725185
vn 0.996051 0.000000 0.088778
vn 0.996051 0.000000 0.088778
vn 0.997584 0.000000 0.069468
vn 0.997584 0.000000 0.069468
vn -0.997584 0.000000 0.069468
vn -0.997584 0.000000 0.069468
vn -0.996051 0.000000 0.088778
vn -0.996051 0.000000 0.088778
vn 0.184903 0.000000 -0.982757
vn 0.184903 0.000000 -0.982757
vn 0.688555 0.000000 -0.725185
vn 0.688555 0.000000 -0.725185
vn -0.184903 0.000000 -0.982757
vn -0.184903 0.000000 -0.982757
vn 0.897630 0.000000 -0.440749
vn 0.897630 0.000000 -0.440749
vn 0.000000 1.000000 0.000000
vn 0.000000 1.000000 0.000000
vn 0.000000 1.000000 0.000000
vn 0.000000 1.000000 0.000000
vn 0.000000 1.000000 0.000000
vn 0.000000 1.000000 0.000000
vn 0.000000 1.000000 0.000000
vn 0.000000 1.000000 0.000000
vn 0.000000 1.000000 0.000000
vn 0.000000 1.000000 0.000000
vn 0.000000 1.000000 0.000000
vn 0.000000 1.000000 0.000000
vn 0.000000 1.000000 0.000000
vn 0.000000 1.000000 0.000000
vn -0.674035 0.000000 0.738700
vn -0.674035 0.000000 0.738700
vn -0.674035 0.000000 0.738700
vn -0.674035 0.000000 0.738700
vn 0.674035 0.000000 0.738700
vn 0.674035 0.000000 0.738700
vn 0.674035 0.000000 0.738700
vn 0.674035 0.000000 0.738700
vn -0.984902 0.000000 -0.173115
vn -0.984902 0.000000 -0.173115
vn 0.984902 0.000000 -0.173115
vn 0.984902 0.000000 -0.173115
vn 0.000000 -1.000000 -0.000000
vn 0.000000 -1.000000 -0.000000
vn 0.000000 -1.000000 -0.000000
vn 0.000000 -1.000000 -0.000000
vn 0.000000 -1.000000 -0.000000
vn 0.000000 -1.000000 -0.000000
vn 0.000000 -1.000000 -0.000000
vn 0.000000 -1.000000 -0.000000
vn 0.000000 -1.000000 -0.000000
vn 0.000000 -1.000000 -0.000000
vn 0.000000 -1.000000 -0.000000
vn 0.000000 -1.000000 -0.000000
vn 0.000000 -1.000000 -0.000000
vn 0.000000 -1.000000 -0.000000
s off
g Flipper
usemtl lambert2SG
f 8/1/1 6/2/2 10/3/3 12/4/4
s 1
f 14/5/5 13/6/6 1/7/7 2/40/8
f 11/9/9 9/34/10 23/11/11 22/12/12
f 17/13/13 20/14/14 5/15/15 7/16/16
f 28/17/17 26/18/18 3/19/19 4/31/20
f 2/40/8 1/7/7 25/21/21 27/22/22
f 4/31/20 3/19/19 15/48/23 16/24/24
s off
f 7/56/25 8/55/26 12/53/27 11/54/28 22/46/29 21/47/30 15/23/31 3/45/32 26/43/33 25/44/34 1/52/35 13/51/36 18/49/37 17/50/38
f 5/15/39 6/2/40 8/1/41 7/16/42
f 10/3/43 9/34/44 11/9/45 12/4/46
s 1
f 19/27/47 18/26/48 13/6/6 14/5/5
f 15/48/23 21/25/49 24/28/50 16/24/24
s off
f 20/36/51 19/35/52 14/39/53 2/8/54 27/29/55 28/30/56 4/20/57 16/38/58 24/32/59 23/33/60 9/10/61 10/41/62 6/42/63 5/37/64
s 1
f 17/13/13 18/26/48 19/27/47 20/14/14
f 21/25/49 22/12/12 23/11/11 24/28/50
f 25/21/21 26/18/18 28/17/17 27/22/22
g default
v 0.289716 0.000000 -0.120004
v 0.221739 0.000000 -0.221739
v 0.120005 0.000000 -0.289716
v 0.000000 0.000000 -0.313587
v -0.120004 0.000000 -0.289716
v -0.221739 0.000000 -0.221739
v -0.289716 0.000000 -0.120005
v -0.313587 0.000000 -0.000000
v -0.289716 0.000000 0.120004
v -0.221739 0.000000 0.221739
v -0.120005 0.000000 0.289716
v -0.000000 0.000000 0.313587
v 0.120004 0.000000 0.289716
v 0.221739 0.000000 0.221739
v 0.289716 0.000000 0.120004
v 0.313587 0.000000 0.000000
v 0.275537 0.096904 -0.114131
v 0.210887 0.096904 -0.210886
v 0.114131 0.096904 -0.275537
v 0.000000 0.096904 -0.298239
v -0.114131 0.096904 -0.275537
v -0.210887 0.096904 -0.210887
v -0.275537 0.096904 -0.114131
v -0.298239 0.096904 -0.000000
v -0.275537 0.096904 0.114131
v -0.210887 0.096904 0.210887
v -0.114131 0.096904 0.275537
v -0.000000 0.096904 0.298239
v 0.114131 0.096904 0.275537
v 0.210887 0.096904 0.210887
v 0.275537 0.096904 0.114131
v 0.298239 0.096904 0.000000
v 0.234386 0.184322 -0.097085
v 0.179391 0.184322 -0.179391
v 0.097086 0.184322 -0.234385
v 0.000000 0.184322 -0.253697
v -0.097086 0.184322 -0.234386
v -0.179391 0.184322 -0.179391
v -0.234385 0.184322 -0.097086
v -0.253697 0.184322 -0.000000
v -0.234385 0.184322 0.097086
v -0.179391 0.184322 0.179391
v -0.097086 0.184322 0.234385
v -0.000000 0.184322 0.253697
v 0.097086 0.184322 0.234385
v 0.179391 0.184322 0.179391
v 0.234385 0.184322 0.097086
v 0.253697 0.184322 0.000000
v 0.170291 0.253697 -0.070537
v 0.130335 0.253697 -0.130335
v 0.070537 0.253697 -0.170291
v 0.000000 0.253697 -0.184322
v -0.070537 0.253697 -0.170291
v -0.130335 0.253697 -0.130335
v -0.170291 0.253697 -0.070537
v -0.184322 0.253697 -0.000000
v -0.170291 0.253697 0.070537
v -0.130335 0.253697 0.130335
v -0.070537 0.253697 0.170291
v -0.000000 0.253697 0.184322
v 0.070537 0.253697 0.170291
v 0.130335 0.253697 0.130335
v 0.170291 0.253697 0.070537
v 0.184322 0.253697 0.000000
v 0.089527 0.298239 -0.037083
v 0.068521 0.298239 -0.068521
v 0.037083 0.298239 -0.089527
v 0.000000 0.298239 -0.096904
v -0.037083 0.298239 -0.089527
v -0.068521 0.298239 -0.068521
v -0.089527 0.298239 -0.037084
v -0.096904 0.298239 0.000000
v -0.089527 0.298239 0.037083
v -0.068521 0.298239 0.068521
v -0.037083 0.298239 0.089527
v -0.000000 0.298239 0.096904
v 0.037083 0.298239 0.089527
v 0.068521 0.298239 0.068521
v 0.089527 0.298239 0.037083
v 0.096904 0.298239 0.000000
v 0.000000 0.313587 0.000000
vt 0.961940 0.691341
vt 0.853554 0.853553
vt 0.836249 0.836249
vt 0.939331 0.681977
vt 0.691342 0.961940
vt 0.681977 0.939331
vt 0.500000 1.000000
vt 0.500000 0.975528
vt 0.308658 0.961940
vt 0.318023 0.939331
vt 0.146447 0.853554
vt 0.163751 0.836249
vt 0.038060 0.691342
vt 0.060669 0.681977
vt 0.000000 0.500000
vt 0.024472 0.500000
vt 0.038060 0.308658
vt 0.060669 0.318023
vt 0.146446 0.146447
vt 0.163751 0.163751
vt 0.308658 0.038060
vt 0.318023 0.060669
vt 0.500000 0.000000
vt 0.500000 0.024472
vt 0.691342 0.038060
vt 0.681977 0.060669
vt 0.853553 0.146447
vt 0.836249 0.163751
vt 0.961940 0.308658
vt 0.939331 0.318023
vt 1.000000 0.500000
vt 0.975528 0.500000
vt 0.786031 0.786031
vt 0.873717 0.654798
vt 0.654799 0.873717
vt 0.500000 0.904509
vt 0.345201 0.873717
vt 0.213969 0.786031
vt 0.126283 0.654799
vt 0.095491 0.500000
vt 0.126283 0.345201
vt 0.213969 0.213969
vt 0.345201 0.126283
vt 0.500000 0.095491
vt 0.654799 0.126283
vt 0.786031 0.213969
vt 0.873717 0.345201
vt 0.904509 0.500000
vt 0.707814 0.707813
vt 0.771521 0.612468
vt 0.612468 0.771521
vt 0.500000 0.793893
vt 0.387532 0.771521
vt 0.292187 0.707814
vt 0.228479 0.612468
vt 0.206107 0.500000
vt 0.228479 0.387532
vt 0.292186 0.292186
vt 0.387532 0.228479
vt 0.500000 0.206107
vt 0.612468 0.228479
vt 0.707814 0.292186
vt 0.771521 0.387532
vt 0.793893 0.500000
vt 0.609254 0.609254
vt 0.642747 0.559128
vt 0.559128 0.642747
vt 0.500000 0.654509
vt 0.440872 0.642747
vt 0.390746 0.609254
vt 0.357253 0.559128
vt 0.345491 0.500000
vt 0.357253 0.440872
vt 0.390746 0.390746
vt 0.440872 0.357253
vt 0.500000 0.345491
vt 0.559128 0.357253
vt 0.609254 0.390746
vt 0.642747 0.440872
vt 0.654508 0.500000
vt 0.500000 0.500000
vn 0.912505 0.156434 -0.377972
vn 0.698401 0.156435 -0.698401
vn 0.698401 0.156435 -0.698401
vn 0.912505 0.156434 -0.377972
vn 0.377972 0.156436 -0.912505
vn 0.377973 0.156436 -0.912505
vn 0.000000 0.156436 -0.987688
vn 0.000000 0.156436 -0.987688
vn -0.377971 0.156435 -0.912505
vn -0.377971 0.156435 -0.912505
vn -0.698401 0.156435 -0.698401
vn -0.698401 0.156435 -0.698401
vn -0.912505 0.156435 -0.377972
vn -0.912505 0.156435 -0.377972
vn -0.987688 0.156434 -0.000000
vn -0.987688 0.156434 -0.000000
vn -0.912505 0.156434 0.377972
vn -0.912505 0.156434 0.377972
vn -0.698402 0.156434 0.698401
vn -0.698401 0.156434 0.698401
vn -0.377972 0.156434 0.912505
vn -0.377972 0.156434 0.912505
vn -0.000000 0.156434 0.987688
vn -0.000000 0.156434 0.987688
vn 0.377972 0.156434 0.912505
vn 0.377972 0.156434 0.912505
vn 0.698401 0.156434 0.698401
vn 0.698401 0.156434 0.698401
vn 0.912505 0.156435 0.377972
vn 0.912505 0.156435 0.377972
vn 0.987688 0.156434 0.000000
vn 0.987688 0.156435 0.000000
vn 0.823183 0.453991 -0.340973
vn 0.630037 0.453990 -0.630036
vn 0.630037 0.453990 -0.630037
vn 0.823183 0.453991 -0.340973
vn 0.340974 0.453990 -0.823183
vn 0.340974 0.453990 -0.823183
vn 0.000001 0.453990 -0.891007
vn 0.000001 0.453990 -0.891007
vn -0.340973 0.453990 -0.823183
vn -0.340973 0.453990 -0.823183
vn -0.630036 0.453990 -0.630037
vn -0.630036 0.453990 -0.630037
vn -0.823183 0.453990 -0.340974
vn -0.823183 0.453990 -0.340974
vn -0.891006 0.453990 -0.000000
vn -0.891006 0.453991 -0.000000
vn -0.823183 0.453991 0.340973
vn -0.823183 0.453991 0.340973
vn -0.630037 0.453991 0.630036
vn -0.630037 0.453991 0.630036
vn -0.340973 0.453991 0.823182
vn -0.340974 0.453991 0.823182
vn 0.000000 0.453991 0.891006
vn 0.000000 0.453991 0.891006
vn 0.340973 0.453990 0.823183
vn 0.340973 0.453990 0.823183
vn 0.630037 0.453990 0.630037
vn 0.630037 0.453990 0.630037
vn 0.823183 0.453990 0.340973
vn 0.823183 0.453990 0.340973
vn 0.891006 0.453991 0.000000
vn 0.891006 0.453991 0.000000
vn 0.653282 0.707107 -0.270598
vn 0.500000 0.707107 -0.500000
vn 0.500000 0.707106 -0.500000
vn 0.653282 0.707107 -0.270598
vn 0.270599 0.707106 -0.653282
vn 0.270599 0.707106 -0.653282
vn 0.000000 0.707107 -0.707107
vn 0.000000 0.707107 -0.707107
vn -0.270598 0.707107 -0.653282
vn -0.270598 0.707107 -0.653282
vn -0.500000 0.707107 -0.500000
vn -0.500000 0.707107 -0.500000
vn -0.653282 0.707107 -0.270598
vn -0.653281 0.707107 -0.270599
vn -0.707107 0.707107 -0.000000
vn -0.707107 0.707107 -0.000000
vn -0.653282 0.707107 0.270598
vn -0.653282 0.707107 0.270598
vn -0.500000 0.707107 0.500000
vn -0.500000 0.707107 0.500000
vn -0.270598 0.707107 0.653281
vn -0.270598 0.707107 0.653281
vn -0.000000 0.707107 0.707107
vn 0.000000 0.707107 0.707107
vn 0.270598 0.707107 0.653281
vn 0.270598 0.707107 0.653281
vn 0.500000 0.707107 0.500000
vn 0.500000 0.707107 0.500000
vn 0.653281 0.707107 0.270598
vn 0.653281 0.707107 0.270598
vn 0.707107 0.707107 0.000000
vn 0.707107 0.707107 0.000000
vn 0.419433 0.891006 -0.173735
vn 0.321020 0.891006 -0.321019
vn 0.321020 0.891007 -0.321019
vn 0.419433 0.891007 -0.173735
vn 0.173735 0.891007 -0.419432
vn 0.173735 0.891007 -0.419432
vn 0.000000 0.891006 -0.453991
vn -0.000000 0.891006 -0.453991
vn -0.173735 0.891006 -0.419433
vn -0.173735 0.891006 -0.419433
vn -0.321020 0.891006 -0.321020
vn -0.321019 0.891007 -0.321020
vn -0.419432 0.891006 -0.173735
vn -0.419432 0.891006 -0.173735
vn -0.453991 0.891006 -0.000000
vn -0.453991 0.891006 -0.000000
vn -0.419433 0.891006 0.173735
vn -0.419433 0.891006 0.173735
vn -0.321020 0.891006 0.321020
vn -0.321020 0.891006 0.321020
vn -0.173735 0.891006 0.419433
vn -0.173735 0.891006 0.419433
vn -0.000000 0.891006 0.453991
vn 0.000000 0.891006 0.453991
vn 0.173735 0.891006 0.419433
vn 0.173735 0.891006 0.419433
vn 0.321020 0.891006 0.321020
vn 0.321020 0.891006 0.321020
vn 0.419433 0.891006 0.173735
vn 0.419433 0.891006 0.173735
vn 0.453991 0.891006 -0.000000
vn 0.453991 0.891006 0.000000
vn 0.144526 0.987688 -0.059865
vn 0.110616 0.987688 -0.110616
vn -0.000000 1.000000 0.000000
vn 0.059865 0.987688 -0.144526
vn 0.000000 0.987688 -0.156434
vn -0.059865 0.987688 -0.144526
vn -0.110616 0.987688 -0.110616
vn -0.144526 0.987688 -0.059865
vn -0.156434 0.987688 0.000000
vn -0.144526 0.987688 0.059865
vn -0.110616 0.987688 0.110616
vn -0.059865 0.987688 0.144526
vn -0.000000 0.987688 0.156434
vn 0.059865 0.987688 0.144526
vn 0.110616 0.987688 0.110616
vn 0.144526 0.987688 0.059865
vn 0.156434 0.987688 -0.000000
vn 0.000000 -1.000000 0.000000
vn 0.000000 -1.000000 0.000000
vn 0.000000 -1.000000 0.000000
vn 0.000000 -1.000000 0.000000
vn 0.000000 -1.000000 0.000000
vn 0.000000 -1.000000 0.000000
vn 0.000000 -1.000000 0.000000
vn 0.000000 -1.000000 0.000000
vn 0.000000 -1.000000 0.000000
vn 0.000000 -1.000000 0.000000
vn 0.000000 -1.000000 0.000000
vn 0.000000 -1.000000 0.000000
vn 0.000000 -1.000000 0.000000
vn 0.000000 -1.000000 0.000000
vn 0.000000 -1.000000 0.000000
vn 0.000000 -1.000000 0.000000
s 1
g Pin
usemtl blinn1SG
f 29/57/65 30/58/66 46/59/67 45/60/68
f 30/58/66 31/61/69 47/62/70 46/59/67
f 31/61/69 32/63/71 48/64/72 47/62/70
f 32/63/71 33/65/73 49/66/74 48/64/72
f 33/65/73 34/67/75 50/68/76 49/66/74
f 34/67/75 35/69/77 51/70/78 50/68/76
f 35/69/77 36/71/79 52/72/80 51/70/78
f 36/71/79 37/73/81 53/74/82 52/72/80
f 37/73/81 38/75/83 54/76/84 53/74/82
f 38/75/83 39/77/85 55/78/86 54/76/84
f 39/77/85 40/79/87 56/80/88 55/78/86
f 40/79/87 41/81/89 57/82/90 56/80/88
f 41/81/89 42/83/91 58/84/92 57/82/90
f 42/83/91 43/85/93 59/86/94 58/84/92
f 43/85/93 44/87/95 60/88/96 59/86/94
f 44/87/95 29/57/65 45/60/68 60/88/96
s 2
f 45/60/97 46/59/98 62/89/99 61/90/100
f 46/59/98 47/62/101 63/91/102 62/89/99
f 47/62/101 48/64/103 64/92/104 63/91/102
f 48/64/103 49/66/105 65/93/106 64/92/104
f 49/66/105 50/68/107 66/94/108 65/93/106
f 50/68/107 51/70/109 67/95/110 66/94/108
f 51/70/109 52/72/111 68/96/112 67/95/110
f 52/72/111 53/74/113 69/97/114 68/96/112
f 53/74/113 54/76/115 70/98/116 69/97/114
f 54/76/115 55/78/117 71/99/118 70/98/116
f 55/78/117 56/80/119 72/100/120 71/99/118
f 56/80/119 57/82/121 73/101/122 72/100/120
f 57/82/121 58/84/123 74/102/124 73/101/122
f 58/84/123 59/86/125 75/103/126 74/102/124
f 59/86/125 60/88/127 76/104/128 75/103/126
f 60/88/127 45/60/97 61/90/100 76/104/128
s 3
f 61/90/129 62/89/130 78/105/131 77/106/132
f 62/89/130 63/91/133 79/107/134 78/105/131
f 63/91/133 64/92/135 80/108/136 79/107/134
f 64/92/135 65/93/137 81/109/138 80/108/136
f 65/93/137 66/94/139 82/110/140 81/109/138
f 66/94/139 67/95/141 83/111/142 82/110/140
f 67/95/141 68/96/143 84/112/144 83/111/142
f 68/96/143 69/97/145 85/113/146 84/112/144
f 69/97/145 70/98/147 86/114/148 85/113/146
f 70/98/147 71/99/149 87/115/150 86/114/148
f 71/99/149 72/100/151 88/116/152 87/115/150
f 72/100/151 73/101/153 89/117/154 88/116/152
f 73/101/153 74/102/155 90/118/156 89/117/154
f 74/102/155 75/103/157 91/119/158 90/118/156
f 75/103/157 76/104/159 92/120/160 91/119/158
f 76/104/159 61/90/129 77/106/132 92/120/160
s 4
f 77/106/161 78/105/162 94/121/163 93/122/164
f 78/105/162 79/107/165 95/123/166 94/121/163
f 79/107/165 80/108/167 96/124/168 95/123/166
f 80/108/167 81/109/169 97/125/170 96/124/168
f 81/109/169 82/110/171 98/126/172 97/125/170
f 82/110/171 83/111/173 99/127/174 98/126/172
f 83/111/173 84/112/175 100/128/176 99/127/174
f 84/112/175 85/113/177 101/129/178 100/128/176
f 85/113/177 86/114/179 102/130/180 101/129/178
f 86/114/179 87/115/181 103/131/182 102/130/180
f 87/115/181 88/116/183 104/132/184 103/131/182
f 88/116/183 89/117/185 105/133/186 104/132/184
f 89/117/185 90/118/187 106/134/188 105/133/186
f 90/118/187 91/119/189 107/135/190 106/134/188
f 91/119/189 92/120/191 108/136/192 107/135/190
f 92/120/191 77/106/161 93/122/164 108/136/192
s 5
f 93/122/193 94/121/194 109/137/195
f 94/121/194 95/123/196 109/137/195
f 95/123/196 96/124/197 109/137/195
f 96/124/197 97/125/198 109/137/195
f 97/125/198 98/126/199 109/137/195
f 98/126/199 99/127/200 109/137/195
f 99/127/200 100/128/201 109/137/195
f 100/128/201 101/129/202 109/137/195
f 101/129/202 102/130/203 109/137/195
f 102/130/203 103/131/204 109/137/195
f 103/131/204 104/132/205 109/137/195
f 104/132/205 105/133/206 109/137/195
f 105/133/206 106/134/207 109/137/195
f 106/134/207 107/135/208 109/137/195
f 107/135/208 108/136/209 109/137/195
f 108/136/209 93/122/193 109/137/195
s off
f 30/58/210 29/57/211 44/87/212 43/85/213 42/83/214 41/81/215 40/79/216 39/77/217 38/75/218 37/73/219 36/71/220 35/69/221 34/67/222 33/65/223 32/63/224 31/61/225
