# This file uses centimeters as units for non-parametric coordinates.

mtllib Leaf.mtl
g default
v -0.704456 -0.060902 1.486006
v 0.704456 -0.060902 1.486006
v -0.205592 0.060902 1.486006
v 0.205592 0.060902 1.486006
v -0.096584 0.060902 0.449864
v 0.096584 0.060902 0.449864
v -0.193940 -0.060902 0.399255
v 0.193940 -0.060902 0.399255
v -0.046626 0.019012 0.361598
v 0.046626 0.019012 0.361598
v 0.070989 -0.060902 0.361598
v -0.070989 -0.060902 0.361598
v -0.082162 0.080455 -0.311576
v 0.082162 0.080455 -0.311576
v 0.082162 -0.080455 -0.311576
v -0.082162 -0.080455 -0.311576
v -0.539866 -0.063191 1.856120
v 0.539866 -0.063191 1.856120
v 0.169090 0.060902 1.830370
v -0.169090 0.060902 1.830370
v -0.330314 -0.067669 2.254349
v 0.330314 -0.067669 2.254349
v 0.114242 0.039483 2.180650
v -0.114242 0.039483 2.180650
v -0.003232 -0.060902 2.679358
v 0.003232 -0.060902 2.679358
v 0.039403 0.011197 2.377268
v -0.039403 0.011197 2.377268
v 0.232500 0.060902 0.899255
v -0.232500 0.060902 0.899255
v -0.713992 -0.060902 0.859059
v 0.713992 -0.060902 0.859059
v 0.167974 0.060902 0.649255
v -0.167974 0.060902 0.649255
v -0.543618 -0.060902 0.602997
v 0.543618 -0.060902 0.602997
v 0.242973 0.060902 1.149255
v -0.242973 0.060902 1.149255
v -0.758402 -0.060902 1.149255
v 0.758402 -0.060902 1.149255
v 0.042229 0.019012 -0.241421
v -0.042229 0.019012 -0.241421
v -0.066591 -0.060902 -0.241421
v 0.066591 -0.060902 -0.241421
v -0.082162 0.080455 -0.389650
v 0.082162 0.080455 -0.389650
v 0.082162 -0.080455 -0.389650
v -0.082162 -0.080455 -0.389650
vt 0.248826 0.000000
vt 0.261655 0.000000
vt 0.267960 0.098432
vt 0.242521 0.098432
vt 0.188874 0.388840
vt 0.321607 0.388840
vt 0.333673 0.498566
vt 0.176807 0.498566
vt 0.228718 1.000000
vt 0.281763 1.000000
vt 0.281763 1.000000
vt 0.228718 1.000000
vt 0.505439 0.498566
vt 0.500057 0.498566
vt 0.977659 0.388840
vt 0.027838 0.388840
vt 0.224062 0.726454
vt 0.286418 0.726454
vt 0.270292 0.755215
vt 0.240189 0.755215
vt 0.812861 0.742944
vt 0.278156 0.755215
vt 0.192635 0.742944
vt 0.232325 0.755215
vt 0.268872 0.951701
vt 0.241609 0.951701
vt 0.276736 0.951701
vt 0.233744 0.951701
vt 0.429512 0.268242
vt 0.575984 0.268242
vt 0.309823 0.276633
vt 0.200657 0.276633
vt 0.361868 0.138484
vt 0.643629 0.138484
vt 0.292118 0.162498
vt 0.218362 0.162498
vt 0.180188 0.580025
vt 0.330293 0.580025
vt 0.309463 0.661485
vt 0.201017 0.661485
vt 0.574773 0.676558
vt 0.024760 0.593123
vt 0.430723 0.676558
vt 0.980737 0.593123
vt 0.281763 0.974560
vt 0.228718 0.974560
vt 0.228718 0.974560
vt 0.281763 0.974560
vt 0.995073 0.498566
vt 0.482643 0.388840
vt 0.010424 0.498566
vt 0.522853 0.388840
vt 0.925739 0.676558
vt 0.485721 0.593123
vt 0.079757 0.676558
vt 0.519775 0.593123
vt 0.856883 0.138484
vt 0.148613 0.138484
vt 0.924528 0.268242
vt 0.080969 0.268242
vt 0.727340 0.755215
vt 0.773172 0.755215
vt 0.687651 0.742944
vt 0.317845 0.742944
vt 0.743841 0.000000
vt 0.756671 0.000000
vn 0.000000 0.972681 0.232147
vn 0.000000 0.972681 0.232147
vn 0.000000 0.972681 0.232147
vn 0.000000 0.972681 0.232147
vn 0.000000 1.000000 -0.000000
vn 0.000000 1.000000 -0.000000
vn 0.000000 1.000000 0.000000
vn 0.000000 1.000000 0.000000
vn 0.000000 0.000000 -1.000000
vn 0.000000 0.000000 -1.000000
vn 0.000000 0.000000 -1.000000
vn 0.000000 0.000000 -1.000000
vn 0.000000 -1.000000 0.000000
vn 0.000000 -1.000000 0.000000
vn 0.000000 -0.999997 -0.002375
vn 0.000000 -0.999997 -0.002375
vn 0.249481 0.966941 0.052769
vn 0.234823 0.972013 0.007022
vn 0.234807 0.972015 0.007319
vn 0.251249 0.966353 0.055106
vn -0.234823 0.972013 0.007022
vn -0.249481 0.966941 0.052769
vn -0.251249 0.966353 0.055106
vn -0.234807 0.972015 0.007319
vn -0.077789 0.860363 -0.503711
vn 0.077789 0.860363 -0.503711
vn 0.289045 0.677735 -0.676113
vn -0.289045 0.677734 -0.676113
vn 0.475171 0.329289 -0.815954
vn 0.354594 -0.709577 -0.608903
vn -0.475171 0.329289 -0.815954
vn -0.354594 -0.709578 -0.608903
vn 0.000000 1.000000 0.000000
vn 0.000000 1.000000 0.000000
vn 0.000000 0.991985 0.126357
vn 0.000000 0.991985 0.126357
vn 0.956515 0.291599 -0.006975
vn 0.956515 0.291599 -0.006975
vn 0.964482 0.248192 0.090419
vn 0.964619 0.245253 0.096755
vn 0.000000 -1.000000 0.000000
vn 0.000000 -1.000000 0.000000
vn 0.000000 -0.999470 0.032543
vn 0.000000 -0.999470 0.032543
vn -0.956515 0.291599 -0.006975
vn -0.956515 0.291599 -0.006975
vn -0.964619 0.245253 0.096755
vn -0.964482 0.248192 0.090419
vn 0.000000 -0.999971 -0.007661
vn 0.000000 -0.999971 -0.007661
vn 0.295375 0.949507 0.105781
vn 0.298795 0.948036 0.109311
vn 0.000000 0.999706 0.024236
vn 0.000000 0.999706 0.024236
vn -0.298795 0.948036 0.109311
vn -0.295375 0.949507 0.105781
vn 0.000000 -0.999975 -0.007040
vn 0.000000 -0.999975 -0.007040
vn 0.342657 0.923628 0.171750
vn 0.345047 0.919233 0.189615
vn 0.000000 0.997050 0.076751
vn 0.000000 0.997050 0.076751
vn -0.345047 0.919233 0.189615
vn -0.342657 0.923628 0.171750
vn 0.000000 -0.999873 0.015921
vn 0.000000 -0.999873 0.015921
vn 0.353330 0.898768 0.259563
vn 0.353330 0.898768 0.259563
vn 0.000000 0.989810 0.142398
vn 0.000000 0.989810 0.142398
vn -0.353330 0.898768 0.259563
vn -0.353330 0.898768 0.259563
vn 0.000000 1.000000 0.000000
vn 0.000000 1.000000 0.000000
vn 0.000000 1.000000 -0.000000
vn 0.000000 1.000000 -0.000000
vn -0.293109 0.935078 -0.199288
vn -0.246643 0.966946 -0.064680
vn -0.247807 0.966320 -0.069404
vn -0.302074 0.927235 -0.221329
vn 0.000000 -1.000000 0.000000
vn 0.000000 -1.000000 0.000000
vn 0.000000 -1.000000 0.000000
vn 0.000000 -1.000000 0.000000
vn 0.247807 0.966320 -0.069404
vn 0.246643 0.966946 -0.064680
vn 0.293109 0.935078 -0.199288
vn 0.302074 0.927235 -0.221329
vn 0.000000 1.000000 -0.000000
vn 0.000000 1.000000 -0.000000
vn -0.361638 0.852374 -0.377726
vn -0.361638 0.852374 -0.377726
vn 0.000000 -1.000000 0.000000
vn 0.000000 -1.000000 0.000000
vn 0.361638 0.852374 -0.377726
vn 0.361638 0.852374 -0.377726
vn 0.000000 0.945662 0.325151
vn 0.000000 0.945662 0.325151
vn -0.999613 0.006432 0.027072
vn -0.997775 0.015409 0.064858
vn 0.000000 -0.992755 0.120154
vn 0.000000 -0.992755 0.120154
vn 0.997775 0.015409 0.064858
vn 0.999613 0.006432 0.027072
vn 0.000000 1.000000 0.000000
vn 0.000000 1.000000 0.000000
vn 1.000000 0.000000 0.000000
vn 1.000000 0.000000 0.000000
vn 0.000000 -1.000000 0.000000
vn 0.000000 -1.000000 0.000000
vn -1.000000 0.000000 0.000000
vn -1.000000 0.000000 0.000000
s off
g Leaf
usemtl lambert2SG
f 25/1/1 26/2/2 27/3/3 28/4/4
s 1
f 3/5/5 4/6/6 37/7/7 38/8/8
s off
f 45/9/9 46/10/10 47/11/11 48/12/12
s 2
f 39/13/13 40/49/14 2/15/15 1/52/16
s 3
f 2/50/17 40/14/18 37/7/19 4/6/20
s 4
f 39/51/21 1/16/22 3/5/23 38/8/24
s 5
f 5/17/25 6/18/26 10/19/27 9/20/28
f 6/18/26 8/64/29 11/22/30 10/19/27
f 8/21/29 7/63/31 12/61/32 11/62/30
f 7/23/31 5/17/25 9/20/28 12/24/32
s 6
f 9/20/33 10/19/34 41/25/35 42/26/36
s 7
f 10/19/37 11/22/38 44/27/39 41/25/40
s 8
f 11/22/41 12/24/42 43/28/43 44/27/44
s 9
f 12/24/45 9/20/46 42/26/47 43/28/48
s 2
f 1/52/16 2/15/15 18/59/49 17/30/50
s 3
f 2/50/17 4/6/20 19/31/51 18/29/52
s 1
f 4/6/6 3/5/5 20/32/53 19/31/54
s 4
f 3/5/23 1/16/22 17/60/55 20/32/56
s 2
f 17/30/50 18/59/49 22/57/57 21/34/58
s 3
f 18/29/52 19/31/51 23/35/59 22/33/60
s 1
f 19/31/54 20/32/53 24/36/61 23/35/62
s 4
f 20/32/56 17/60/55 21/58/63 24/36/64
s 2
f 21/34/58 22/57/57 26/66/65 25/65/66
s 3
f 22/33/60 23/35/59 27/3/67 26/2/68
s 1
f 23/35/62 24/36/61 28/4/69 27/3/70
s 4
f 24/36/64 21/58/63 25/1/71 28/4/72
s 1
f 30/37/73 29/38/74 33/39/75 34/40/76
s 4
f 35/55/77 31/42/78 30/37/79 34/40/80
s 2
f 35/41/81 36/53/82 32/44/83 31/56/84
s 3
f 29/38/85 32/54/86 36/43/87 33/39/88
s 1
f 34/40/76 33/39/75 6/18/89 5/17/90
s 4
f 7/23/91 35/55/77 34/40/80 5/17/92
s 2
f 7/63/93 8/21/94 36/53/82 35/41/81
s 3
f 33/39/88 36/43/87 8/64/95 6/18/96
s 1
f 38/8/8 37/7/7 29/38/74 30/37/73
s 4
f 31/42/78 39/51/21 38/8/24 30/37/79
s 2
f 31/56/84 32/44/83 40/49/14 39/13/13
s 3
f 37/7/19 40/14/18 32/54/86 29/38/85
s 6
f 42/26/36 41/25/35 14/45/97 13/46/98
s 9
f 43/28/48 42/26/47 13/46/99 16/47/100
s 8
f 44/27/44 43/28/43 16/47/101 15/48/102
s 7
f 41/25/40 44/27/39 15/48/103 14/45/104
s 6
f 13/46/98 14/45/97 46/10/105 45/9/106
s 7
f 14/45/104 15/48/103 47/11/107 46/10/108
s 8
f 15/48/102 16/47/101 48/12/109 47/11/110
s 9
f 16/47/100 13/46/99 45/9/111 48/12/112
